<svg xmlns="http://www.w3.org/2000/svg" xml:space="preserve" width="900" height="900" id="data">
  <linearGradient id="a" x1="201.772" x2="667.993" y1="153.291" y2="619.512" gradientUnits="userSpaceOnUse">
    <stop offset="0" style="stop-color:#dbefff"></stop>
    <stop offset="1" style="stop-color:#f7ebff"></stop>
  </linearGradient>
  <path fill="url(#a)" d="M538 80.501c61 1 147.5 26 171 88 25.262 66.646 22.275 80.9 63.5 153.5 41.168 72.498 19.168 174.498-24.832 217.831-62.324 61.379-116.506 46.145-227.168 45.669-77.5-.333-164.099 55.867-208 70.5-29.5 9.833-92.5 20.5-132.5-20.5-44.171-45.275-34.333-129-42-161-8.031-33.521-61.214-152.046-4-244.5 69-111.5 222.98-152.468 404-149.5z"></path>
  <linearGradient id="b" x1="626.599" x2="626.599" y1="791.968" y2="746.852" gradientUnits="userSpaceOnUse">
    <stop offset="0" style="stop-color:#f7ebff"></stop>
    <stop offset="1" style="stop-color:#dbefff"></stop>
  </linearGradient>
  <path fill="url(#b)" d="M629.447 754.408c22.018-3.996 103.557-20.321 107.221 12.76 3.082 27.833-63.029 25.507-94.668 24-40.25-1.917-122.383 6.848-125.477-9.827-1.855-10.007 22.645-15.34 47.93-16.833 20.787-1.228 32.746-4.247 64.994-10.1z"></path>
  <linearGradient id="c" x1="261.428" x2="261.428" y1="816.509" y2="775.08" gradientUnits="userSpaceOnUse">
    <stop offset="0" style="stop-color:#f7ebff"></stop>
    <stop offset="1" style="stop-color:#dbefff"></stop>
  </linearGradient>
  <path fill="url(#c)" d="M260.14 779.547c-20.139-2.273-105.315-15.361-101.14 17.621 3.333 26.334 66.169 16.033 94.667 18.334 40.25 3.25 108.967-1.027 110.315-17.881.809-10.113-21.677-13.526-44.54-13.053-18.794.389-29.806-1.691-59.302-5.021z"></path>
  <linearGradient id="d" x1="388.346" x2="412.24" y1="497.961" y2="521.855" gradientUnits="userSpaceOnUse">
    <stop offset="0" style="stop-color:#ff57bd"></stop>
    <stop offset="1" style="stop-color:#fe6a77"></stop>
  </linearGradient>
  <path fill="url(#d)" d="M387.792 499.294c0-1.042.845-1.887 1.887-1.887h21.227c1.042 0 1.887.845 1.887 1.887v21.227a1.887 1.887 0 0 1-1.887 1.887h-21.227a1.887 1.887 0 0 1-1.887-1.887v-21.227z"></path>
  <path fill="#FDE1A7" d="M399.417 517.22a1 1 0 0 1-.794-.393l-6.125-8a1 1 0 1 1 1.588-1.214l5.247 6.853 7.11-11.399a1.001 1.001 0 0 1 1.697 1.059l-7.875 12.625a1.003 1.003 0 0 1-.801.47l-.047-.001z"></path>
  <linearGradient id="e" x1="388.345" x2="412.24" y1="534.819" y2="558.715" gradientUnits="userSpaceOnUse">
    <stop offset="0" style="stop-color:#ff57bd"></stop>
    <stop offset="1" style="stop-color:#fe6a77"></stop>
  </linearGradient>
  <path fill="url(#e)" d="M387.792 536.153c0-1.042.845-1.887 1.887-1.887h21.227c1.042 0 1.887.845 1.887 1.887v21.227a1.887 1.887 0 0 1-1.887 1.887h-21.227a1.887 1.887 0 0 1-1.887-1.887v-21.227z"></path>
  <path fill="#FDE1A7" d="M399.417 554.079a1 1 0 0 1-.794-.393l-6.125-8a1 1 0 1 1 1.588-1.214l5.247 6.853 7.11-11.399a1.001 1.001 0 0 1 1.697 1.059l-7.875 12.625a1.003 1.003 0 0 1-.801.47l-.047-.001z"></path>
  <linearGradient id="f" x1="388.346" x2="412.24" y1="571.68" y2="595.573" gradientUnits="userSpaceOnUse">
    <stop offset="0" style="stop-color:#ff57bd"></stop>
    <stop offset="1" style="stop-color:#fe6a77"></stop>
  </linearGradient>
  <path fill="url(#f)" d="M387.792 573.013c0-1.042.845-1.887 1.887-1.887h21.227c1.042 0 1.887.845 1.887 1.887v21.227a1.887 1.887 0 0 1-1.887 1.887h-21.227a1.887 1.887 0 0 1-1.887-1.887v-21.227z"></path>
  <path fill="#FDE1A7" d="M399.417 590.938a1 1 0 0 1-.794-.393l-6.125-8a1 1 0 1 1 1.588-1.214l5.247 6.853 7.11-11.399a1 1 0 0 1 1.697 1.059l-7.875 12.625a1.003 1.003 0 0 1-.801.47l-.047-.001z"></path>
  <linearGradient id="g" x1="351.657" x2="485.22" y1="355.033" y2="488.596" gradientUnits="userSpaceOnUse">
    <stop offset="0" style="stop-color:#706aed"></stop>
    <stop offset="1" style="stop-color:#271068"></stop>
  </linearGradient>
  <path fill="url(#g)" d="M347.813 358.876h141.25v125.875h-141.25z"></path>
  <linearGradient id="h" x1="362.188" x2="415.106" y1="372.084" y2="372.084" gradientUnits="userSpaceOnUse">
    <stop offset="0" style="stop-color:#fff"></stop>
    <stop offset="1" style="stop-color:#f1d1f8"></stop>
  </linearGradient>
  <path fill="url(#h)" d="M362.188 369.584h52.917v5h-52.917z"></path>
  <linearGradient id="i" x1="466.688" x2="466.688" y1="471.001" y2="374.002" gradientUnits="userSpaceOnUse">
    <stop offset="0" style="stop-color:#fde1a7"></stop>
    <stop offset="1" style="stop-color:#f9a144"></stop>
  </linearGradient>
  <path fill="url(#i)" d="M474.688 376.001a2 2 0 0 0-2-2h-12a2 2 0 0 0-2 2v95h16v-95z"></path>
  <linearGradient id="j" x1="458.688" x2="474.688" y1="393.084" y2="393.084" gradientUnits="userSpaceOnUse">
    <stop offset="0" style="stop-color:#00e2ec"></stop>
    <stop offset="1" style="stop-color:#0090b2"></stop>
  </linearGradient>
  <path fill="url(#j)" d="M474.688 412.168v-36.167a2 2 0 0 0-2-2h-12a2 2 0 0 0-2 2v36.167h16z"></path>
  <linearGradient id="k" x1="418.438" x2="418.438" y1="471.001" y2="395.252" gradientUnits="userSpaceOnUse">
    <stop offset="0" style="stop-color:#1aa9e8"></stop>
    <stop offset=".422" style="stop-color:#3d80ef"></stop>
    <stop offset=".791" style="stop-color:#5662f4"></stop>
    <stop offset="1" style="stop-color:#5f57f6"></stop>
  </linearGradient>
  <path fill="url(#k)" d="M426.438 397.251a2 2 0 0 0-2-2h-12a2 2 0 0 0-2 2v73.75h16v-73.75z"></path>
  <linearGradient id="l" x1="410.438" x2="426.438" y1="417.543" y2="417.543" gradientUnits="userSpaceOnUse">
    <stop offset="0" style="stop-color:#00e2ec"></stop>
    <stop offset="1" style="stop-color:#0090b2"></stop>
  </linearGradient>
  <path fill="url(#l)" d="M426.438 439.834v-42.583a2 2 0 0 0-2-2h-12a2 2 0 0 0-2 2v42.583h16z"></path>
  <linearGradient id="m" x1="442.563" x2="442.563" y1="471.001" y2="409.252" gradientUnits="userSpaceOnUse">
    <stop offset="0" style="stop-color:#ff57bd"></stop>
    <stop offset="1" style="stop-color:#fe6a77"></stop>
  </linearGradient>
  <path fill="url(#m)" d="M450.563 411.251a2 2 0 0 0-2-2h-12a2 2 0 0 0-2 2v59.75h16v-59.75z"></path>
  <linearGradient id="n" x1="434.563" x2="450.563" y1="424.543" y2="424.543" gradientUnits="userSpaceOnUse">
    <stop offset="0" style="stop-color:#00e2ec"></stop>
    <stop offset="1" style="stop-color:#0090b2"></stop>
  </linearGradient>
  <path fill="url(#n)" d="M450.563 439.834v-28.583a2 2 0 0 0-2-2h-12a2 2 0 0 0-2 2v28.583h16z"></path>
  <linearGradient id="o" x1="394.313" x2="394.313" y1="471.001" y2="381.752" gradientUnits="userSpaceOnUse">
    <stop offset="0" style="stop-color:#c7a0f6"></stop>
    <stop offset="1" style="stop-color:#ff57bd"></stop>
  </linearGradient>
  <path fill="url(#o)" d="M402.313 383.751a2 2 0 0 0-2-2h-12a2 2 0 0 0-2 2v87.25h16v-87.25z"></path>
  <linearGradient id="p" x1="386.313" x2="402.313" y1="398.209" y2="398.209" gradientUnits="userSpaceOnUse">
    <stop offset="0" style="stop-color:#00e2ec"></stop>
    <stop offset="1" style="stop-color:#0090b2"></stop>
  </linearGradient>
  <path fill="url(#p)" d="M402.313 414.668v-30.917a2 2 0 0 0-2-2h-12a2 2 0 0 0-2 2v30.917h16z"></path>
  <linearGradient id="q" x1="370.188" x2="370.188" y1="471.001" y2="425.752" gradientUnits="userSpaceOnUse">
    <stop offset="0" style="stop-color:#fde1a7"></stop>
    <stop offset="1" style="stop-color:#f9a144"></stop>
  </linearGradient>
  <path fill="url(#q)" d="M378.188 427.751a2 2 0 0 0-2-2h-12a2 2 0 0 0-2 2v43.25h16v-43.25z"></path>
  <linearGradient id="r" x1="362.188" x2="378.188" y1="439.376" y2="439.376" gradientUnits="userSpaceOnUse">
    <stop offset="0" style="stop-color:#00e2ec"></stop>
    <stop offset="1" style="stop-color:#0090b2"></stop>
  </linearGradient>
  <path fill="url(#r)" d="M378.188 453.001v-25.25a2 2 0 0 0-2-2h-12a2 2 0 0 0-2 2v25.25h16z"></path>
  <path fill="#1AA9E8" d="M474.688 472.001h-112.25a1 1 0 1 1 0-2h112.25a1 1 0 1 1 0 2z"></path>
  <linearGradient id="s" x1="172.876" x2="285.876" y1="155.626" y2="268.626" gradientUnits="userSpaceOnUse">
    <stop offset="0" style="stop-color:#00e2ec"></stop>
    <stop offset="1" style="stop-color:#0090b2"></stop>
  </linearGradient>
  <path fill="url(#s)" d="M158.5 170.001h141.75v84.25H158.5z"></path>
  <path fill="#00E2EC" d="M177.81 241.751h41.357v-52.583zM257.5 229.001v12.75H283v-43.083z"></path>
  <path fill="#0090B2" d="M219.167 189.168v52.583H257.5v-12.75zM295.334 215.126 283 198.668v43.083h12.334z"></path>
  <linearGradient id="t" x1="235.75" x2="290" y1="183.501" y2="183.501" gradientUnits="userSpaceOnUse">
    <stop offset="0" style="stop-color:#fff"></stop>
    <stop offset="1" style="stop-color:#f1d1f8"></stop>
  </linearGradient>
  <path fill="url(#t)" d="M235.75 181.001H290v5h-54.25z"></path>
  <path fill="#1AA9E8" d="M204.386 228.344a.998.998 0 0 1-.85-.472l-23.66-38.047a1 1 0 1 1 1.698-1.056l23.66 38.047a1 1 0 0 1-.848 1.528z"></path>
  <circle cx="180.725" cy="189.297" r="5.375" fill="#F95FC3"></circle>
  <circle cx="204.385" cy="227.344" r="3.427" fill="#FFF"></circle>
  <g fill="#FFF">
    <path d="M318.03 272.86a65.341 65.341 0 0 1-3.459-37.047c3.737-18.975 15.302-34.415 30.677-43.635l-14.387-28.273c-23.731 13.518-41.669 36.89-47.36 65.789-3.92 19.905-1.467 39.585 5.938 56.936l28.591-13.77zM353.264 188.087c11.709-5.001 24.99-6.661 38.425-4.016 19.49 3.838 35.239 15.943 44.36 31.946l28.595-13.772c-13.34-24.664-37.178-43.403-66.837-49.244-20.671-4.071-41.101-1.271-58.93 6.814l14.387 28.272zM468.553 210.352l-28.59 13.77a65.335 65.335 0 0 1 3.467 37.068c-7.008 35.583-41.535 58.749-77.118 51.741-19.499-3.84-35.252-15.953-44.372-31.965l-28.594 13.772c13.337 24.672 37.18 43.42 66.847 49.263 52.743 10.387 103.92-23.95 114.307-76.692 3.922-19.914 1.465-39.602-5.947-56.957z"></path>
  </g>
  <linearGradient id="u" x1="281.666" x2="335.001" y1="239.009" y2="239.009" gradientUnits="userSpaceOnUse">
    <stop offset="0" style="stop-color:#fde1a7"></stop>
    <stop offset="1" style="stop-color:#f9a144"></stop>
  </linearGradient>
  <path fill="url(#u)" d="M323.885 284.182a65.336 65.336 0 0 1-10.552-35.681c0-19.339 8.363-36.723 21.667-48.74l-19.579-24.96c-20.672 17.849-33.756 44.246-33.756 73.7 0 20.288 6.21 39.123 16.828 54.716l25.392-19.035z"></path>
  <linearGradient id="v" x1="322.498" x2="454.092" y1="178.387" y2="178.387" gradientUnits="userSpaceOnUse">
    <stop offset="0" style="stop-color:#5a55f8"></stop>
    <stop offset="1" style="stop-color:#8c6ae2"></stop>
  </linearGradient>
  <path fill="url(#v)" d="M342.076 194.198c10.522-7.169 23.232-11.364 36.925-11.364 19.865 0 37.656 8.833 49.697 22.772l25.394-19.038c-17.853-21.621-44.863-35.401-75.091-35.401-21.068 0-40.572 6.695-56.502 18.072l19.577 24.959z"></path>
  <linearGradient id="w" x1="303.895" x2="476.334" y1="269.801" y2="269.801" gradientUnits="userSpaceOnUse">
    <stop offset="0" style="stop-color:#ff57bd"></stop>
    <stop offset="1" style="stop-color:#fe6a77"></stop>
  </linearGradient>
  <path fill="url(#w)" d="m459.494 193.767-25.391 19.035a65.337 65.337 0 0 1 10.564 35.699c0 36.267-29.4 65.667-65.667 65.667-19.873 0-37.67-8.84-49.712-22.789l-25.394 19.037c17.853 21.631 44.869 35.418 75.105 35.418 53.756 0 97.333-43.578 97.333-97.334.002-20.294-6.213-39.137-16.838-54.733z"></path>
  <linearGradient id="x" x1="340.931" x2="410.142" y1="268.834" y2="268.834" gradientUnits="userSpaceOnUse">
    <stop offset="0" style="stop-color:#c7a0f6"></stop>
    <stop offset="1" style="stop-color:#ff57bd"></stop>
  </linearGradient>
  <path fill="url(#x)" d="M340.931 262.813c5.792 15.397 20.648 26.355 38.069 26.355 12.502 0 23.682-5.646 31.142-14.523L379 248.501l-38.069 14.312z"></path>
  <linearGradient id="y" x1="379" x2="419.667" y1="242.56" y2="242.56" gradientUnits="userSpaceOnUse">
    <stop offset="0" style="stop-color:#994574"></stop>
    <stop offset="1" style="stop-color:#43256f"></stop>
  </linearGradient>
  <path fill="url(#y)" d="M393.424 210.476 379 248.501l31.142 26.144c5.941-7.07 9.525-16.187 9.525-26.144 0-17.379-10.906-32.204-26.243-38.025z"></path>
  <linearGradient id="z" x1="350.263" x2="379.018" y1="219.73" y2="248.485" gradientUnits="userSpaceOnUse">
    <stop offset="0" style="stop-color:#1aa9e8"></stop>
    <stop offset=".422" style="stop-color:#3d80ef"></stop>
    <stop offset=".791" style="stop-color:#5662f4"></stop>
    <stop offset="1" style="stop-color:#5f57f6"></stop>
  </linearGradient>
  <path fill="url(#z)" d="M393.424 210.476a40.554 40.554 0 0 0-14.423-2.642c-22.459 0-40.667 18.207-40.667 40.667 0 5.038.922 9.859 2.597 14.312L379 248.501l14.424-38.025z"></path>
  <linearGradient id="A" x1="517.477" x2="694.831" y1="106.511" y2="283.866" gradientUnits="userSpaceOnUse">
    <stop offset="0" style="stop-color:#c91c91"></stop>
    <stop offset="1" style="stop-color:#fe6a77"></stop>
  </linearGradient>
  <path fill="url(#A)" d="M497.111 126.876h218.084v136.625H497.111z"></path>
  <circle cx="519.193" cy="149.263" r="5.375" fill="#FDE1A7"></circle>
  <circle cx="548.033" cy="149.263" r="5.375" fill="#00E2EC"></circle>
  <circle cx="576.873" cy="149.263" r="5.375" fill="#C7A0F6"></circle>
  <linearGradient id="B" x1="513.818" x2="582.25" y1="166.167" y2="166.167" gradientUnits="userSpaceOnUse">
    <stop offset="0" style="stop-color:#fff"></stop>
    <stop offset="1" style="stop-color:#f1d1f8"></stop>
  </linearGradient>
  <path fill="url(#B)" d="M513.818 163.667h68.432v5h-68.432z"></path>
  <linearGradient id="C" x1="611.986" x2="611.986" y1="239.834" y2="148.328" gradientUnits="userSpaceOnUse">
    <stop offset="0" style="stop-color:#994574"></stop>
    <stop offset="1" style="stop-color:#9f36ad"></stop>
  </linearGradient>
  <path fill="url(#C)" d="M698.486 160.604c-3.313-6.522-8.281-12.5-15.334-12.27-15.332.5-25.334 40.5-36 41s-7-40.333-20.666-40c-17.166.419-17.834 79.5-39.334 81.333s-26.334-42.5-36-41.833-13.822 34.761-15.5 42.167-10.166 8.833-10.166 8.833h173v-79.23z"></path>
  <linearGradient id="D" x1="513.818" x2="698.486" y1="200.001" y2="200.001" gradientUnits="userSpaceOnUse">
    <stop offset="0" style="stop-color:#fe6a77"></stop>
    <stop offset="1" style="stop-color:#ff57bd"></stop>
  </linearGradient>
  <path fill="url(#D)" d="M698.486 160.167c-23.668 1-28.668 64.667-53 63.167-20.186-1.244-16.834-35.5-34.5-36.5-17.668-1-26 40.5-47.334 41.833-10.373.648-18.666-5.833-28.166-5s-19.334 13.5-21.668 16.167h184.668v-79.667z"></path>
  <linearGradient id="E" x1="378.329" x2="466.662" y1="123.418" y2="123.418" gradientUnits="userSpaceOnUse">
    <stop offset="0" style="stop-color:#fde1a7"></stop>
    <stop offset="1" style="stop-color:#f9a144"></stop>
  </linearGradient>
  <path fill="url(#E)" d="M378.329 109.418h88.333v28h-88.333z"></path>
  <path fill="#05C5DA" d="M458.561 128.293c-3.496 0-5.252-2.264-6.802-4.262-1.452-1.872-2.706-3.488-5.221-3.488-2.516 0-3.77 1.616-5.222 3.488-1.55 1.998-3.306 4.262-6.802 4.262-3.496 0-5.252-2.264-6.801-4.262-1.452-1.872-2.706-3.488-5.221-3.488s-3.77 1.616-5.221 3.488c-1.549 1.998-3.306 4.262-6.801 4.262-3.494 0-5.25-2.264-6.799-4.262-1.451-1.872-2.705-3.488-5.219-3.488-2.515 0-3.769 1.616-5.22 3.488-1.549 1.998-3.305 4.262-6.801 4.262a1 1 0 0 1 0-2c2.516 0 3.769-1.616 5.221-3.488 1.549-1.998 3.305-4.262 6.8-4.262 3.495 0 5.25 2.265 6.8 4.262 1.451 1.872 2.704 3.488 5.218 3.488 2.516 0 3.769-1.616 5.221-3.488 1.549-1.998 3.306-4.262 6.801-4.262s5.252 2.264 6.801 4.262c1.452 1.872 2.706 3.488 5.221 3.488 2.516 0 3.77-1.616 5.222-3.488 1.55-1.998 3.306-4.262 6.802-4.262 3.496 0 5.251 2.264 6.801 4.262 1.452 1.872 2.706 3.488 5.222 3.488a1 1 0 1 1 0 2z"></path>
  <path fill="#1AA9E8" d="M390.743 168.316a1 1 0 0 1-.695-1.72l31.007-29.898a1 1 0 1 1 1.389 1.439l-31.007 29.898a.993.993 0 0 1-.694.281z"></path>
  <circle cx="390.743" cy="167.316" r="3.958" fill="#FDE1A7"></circle>
  <linearGradient id="F" x1="525.079" x2="602.651" y1="393.841" y2="393.841" gradientUnits="userSpaceOnUse">
    <stop offset="0" style="stop-color:#00e2ec"></stop>
    <stop offset="1" style="stop-color:#0090b2"></stop>
  </linearGradient>
  <path fill="url(#F)" d="M551.488 422.988a2.819 2.819 0 0 0 3.855 1.009l45.912-20.729a2.817 2.817 0 0 0 1.01-3.854l-20.859-34.721a2.817 2.817 0 0 0-3.854-1.009l-51.076 14.156a2.817 2.817 0 0 0-1.012 3.854l26.024 41.294z"></path>
  <linearGradient id="G" x1="536.739" x2="590.243" y1="364.178" y2="417.682" gradientUnits="userSpaceOnUse">
    <stop offset="0" style="stop-color:#994574"></stop>
    <stop offset="1" style="stop-color:#43256f"></stop>
  </linearGradient>
  <path fill="url(#G)" d="m604.764 399.992-22.215-36.979a3.001 3.001 0 0 0-4.105-1.075l-54.4 15.077a3 3 0 0 0-1.076 4.104l27.717 43.979a3.002 3.002 0 0 0 4.105 1.075l48.9-22.077a3 3 0 0 0 1.074-4.104zm-50.274 18.855L531 380.876l47.75-14.375 20.375 33.375-44.635 18.971z"></path>
  <path fill="#FDE1A7" d="m586.938 388.376-36.278 14.316-2.939-4.213 36.824-13.782z"></path>
  <circle cx="562.166" cy="384.813" r="4.032" fill="#F95FC3"></circle>
  <circle cx="548.43" cy="390.093" r="4.032" fill="#FE687E"></circle>
  <circle cx="575.062" cy="380.104" r="3.628" fill="#00E2EC"></circle>
  <linearGradient id="H" x1="598.738" x2="638.989" y1="685.069" y2="685.069" gradientUnits="userSpaceOnUse">
    <stop offset="0" style="stop-color:#f4bea3"></stop>
    <stop offset="1" style="stop-color:#e8878e"></stop>
  </linearGradient>
  <path fill="url(#H)" d="M635.834 660.667c-1.174-19.972 3.316-44.463 3.15-52.129l-32.65-1.871s-.629 23.362-.334 43.584c.334 22.834 5.084 88.334 3.668 98.583-.883 6.388-6.1 10.51-10.93 13.553 2.32 1.188 6.43 2.006 12.307-.902 6.648-3.29 14.137-6.967 19.418-7.15-.213-3.449-.428-6.677-.463-8.833-.166-10.418 7.25-60.751 5.834-84.835z"></path>
  <linearGradient id="I" x1="584.696" x2="630.909" y1="763.56" y2="763.56" gradientUnits="userSpaceOnUse">
    <stop offset="0" style="stop-color:#706aed"></stop>
    <stop offset="1" style="stop-color:#271068"></stop>
  </linearGradient>
  <path fill="url(#I)" d="M611.045 761.484c-5.877 2.908-9.986 2.091-12.307.902-1.258.792-2.49 1.515-3.611 2.181-4.273 2.538-11.117 3.535-10.375 6.184.582 2.083 16.725 3.03 25.375.566 4.084-1.163 11.082-4.917 11.082-4.917l.271 5.104s7.76.578 8.594-.339c1.266-1.394.832-9.603.389-16.832-5.281.185-12.77 3.861-19.418 7.151z"></path>
  <linearGradient id="J" x1="656.75" x2="694.857" y1="687.662" y2="687.662" gradientUnits="userSpaceOnUse">
    <stop offset="0" style="stop-color:#f4bea3"></stop>
    <stop offset="1" style="stop-color:#e8878e"></stop>
  </linearGradient>
  <path fill="url(#J)" d="M674.752 762.168c6.943-3.437 14.803-7.292 20.105-7.15-.217-3.445-.471-6.68-.607-8.85-.416-6.666-.582-18.166.252-42.333s-3.5-41.166-5-55.5-1.5-29.5-1.668-37.166l-31.084 3.832s2.391 22.887 4.5 43c1.994 19.001 14.084 79.917 12.668 90.166-.871 6.3-7.109 11.459-11.74 14.766 2.265 1.259 6.47 2.255 12.574-.765z"></path>
  <linearGradient id="K" x1="649" x2="695.239" y1="764.359" y2="764.359" gradientUnits="userSpaceOnUse">
    <stop offset="0" style="stop-color:#706aed"></stop>
    <stop offset="1" style="stop-color:#271068"></stop>
  </linearGradient>
  <path fill="url(#K)" d="M649 772.501c0 1.417 16.184 1.964 24.834-.5 4.084-1.163 11.082-4.917 11.082-4.917l.271 5.104s8.313.313 9.146-.604c1.26-1.388.973-9.431.523-16.566-5.303-.142-13.162 3.714-20.105 7.15-6.104 3.021-10.309 2.024-12.574.765-1.287.919-2.457 1.702-3.344 2.318-4.083 2.833-9.833 4.5-9.833 7.25z"></path>
  <linearGradient id="L" x1="600.065" x2="701.56" y1="519.602" y2="621.097" gradientUnits="userSpaceOnUse">
    <stop offset="0" style="stop-color:#ff57bd"></stop>
    <stop offset="1" style="stop-color:#fe6a77"></stop>
  </linearGradient>
  <path fill="url(#L)" d="M678 491.668c3.5 5.333 13.002 22.334 16.5 40.083 3.229 16.373 3 25.75 4.75 38.5s10.75 40.75 10.25 42.5-4.5 4.375-12.332 4.584c-5.854.156-10.166-.333-20.666 3.167s-22.334 5.5-36.668 4c-14.332-1.5-25.666-7.5-32.832-7.667-7.168-.167-16.668-.167-17.668-2.167s5.508-17.468 6.916-27.167c1.592-10.949 5.084-31.834 12.75-52.5 7.186-19.37 17.334-41.667 17.334-41.667s14.916-.083 25.666-.333 26-1.333 26-1.333z"></path>
  <path fill="#CFAEFF" d="M649.416 618.516c-3.172 0-6.392-.174-9.687-.52-7.909-.827-15.038-3.046-20.766-4.829-4.757-1.48-8.865-2.76-11.985-2.832l-1.976-.043c-5.563-.114-11.867-.243-14.725-1.292a.999.999 0 1 1 .689-1.877c2.543.933 8.938 1.064 14.076 1.17l1.981.042c3.4.079 7.633 1.396 12.533 2.922 5.938 1.849 12.667 3.943 20.38 4.751 12.658 1.324 24.18.067 36.247-3.954 9.199-3.066 13.772-3.121 18.614-3.179.765-.009 1.538-.019 2.342-.04 7.015-.188 9.938-2.276 10.666-2.913a1 1 0 1 1 1.314 1.508c-1.097.957-4.455 3.205-11.928 3.405-.813.021-1.597.03-2.371.04-4.682.056-9.103.108-18.005 3.075-9.205 3.07-18.099 4.566-27.399 4.566z"></path>
  <path fill="#CFAEFF" d="M652.607 611.853c-3.981 0-8.156-.23-12.544-.69-8.29-.867-15.666-3.143-22.174-5.149-4.704-1.451-8.767-2.704-11.986-3.016-2.659-.256-5.075-.043-7.205.146-2.522.225-4.704.419-6.521-.249a1 1 0 1 1 .689-1.877c1.396.514 3.372.338 5.655.134 2.216-.197 4.728-.42 7.575-.145 3.421.33 7.574 1.611 12.382 3.095 6.421 1.98 13.698 4.225 21.794 5.072 14.167 1.479 26.043.539 36.304-2.879 9.114-3.037 11.658-2.957 15.493-2.841.649.02 1.338.041 2.107.048 7.296.068 10.329-1.851 11.984-3.296a1 1 0 1 1 1.314 1.508c-1.872 1.634-5.245 3.79-12.95 3.79l-.366-.002a91.825 91.825 0 0 1-2.151-.049c-3.757-.116-6.024-.187-14.799 2.738-7.338 2.448-15.461 3.661-24.601 3.662z"></path>
  <linearGradient id="M" x1="580.437" x2="591.678" y1="390.963" y2="390.963" gradientUnits="userSpaceOnUse">
    <stop offset="0" style="stop-color:#c16846"></stop>
    <stop offset=".265" style="stop-color:#d27565"></stop>
    <stop offset=".531" style="stop-color:#de7f7b"></stop>
    <stop offset=".781" style="stop-color:#e58589"></stop>
    <stop offset="1" style="stop-color:#e8878e"></stop>
  </linearGradient>
  <path fill="url(#M)" d="M584.084 385.376c-1.52.506-4.084 1.875-3.584 4.375s5.004 6.89 6.504 7.556.498-3.306-.836-5.056 2.387 2.232 3.582 1.833c.875-.292 1.168-1.958.209-4.583-.854-2.335 2.959-4.5 1.291-4.833-1.666-.334-5.166.041-7.166.708z"></path>
  <linearGradient id="N" x1="607.494" x2="645.411" y1="428.17" y2="428.17" gradientUnits="userSpaceOnUse">
    <stop offset="0" style="stop-color:#fde1a7"></stop>
    <stop offset="1" style="stop-color:#f9a144"></stop>
  </linearGradient>
  <path fill="url(#N)" d="M607.533 414.302c.432-.566 12.59-8.994 13.492-9.324 1.268-.463 20.975 25.272 23.725 28.147s-3.635 17.221-8.885 18.221-29.469-35.553-28.332-37.044z"></path>
  <linearGradient id="O" x1="572.566" x2="621.5" y1="398.555" y2="398.555" gradientUnits="userSpaceOnUse">
    <stop offset="0" style="stop-color:#f4bea3"></stop>
    <stop offset="1" style="stop-color:#e8878e"></stop>
  </linearGradient>
  <path fill="url(#O)" d="M572.75 384.251c1.768-1.768 10.584-.75 11.75-.417 1.168.333 4.084-2.083 5.834-2.167s7.104.896 10.25 2.667c3.486 1.963 20.916 21.167 20.916 21.167s-.248 5-4.625 8c-4.387 3.007-7.201 1.632-7.201 1.632s-6.174-11.257-8.299-12.632-7.375.938-11.697-.122c-4.076-.999-9.74-6.253-8.176-7.628 1.66-1.46 5.629 1.909 7.416 2.5 2.645.875 7.604-.175 7.707-2.188.125-2.438-7.775-4.699-13.75-6.5-4.225-1.273-11.562-2.875-10.125-4.312z"></path>
  <path fill="#1AA9E8" d="M611.192 416.44c-2.675 0-4.213-1.294-4.314-1.383a1 1 0 0 1 1.31-1.51c.115.095 3.027 2.434 8.143-.885 3.938-2.556 4.168-7.152 4.17-7.198a.997.997 0 0 1 1.036-.96c.551.02.981.481.962 1.032-.008.23-.247 5.669-5.08 8.805-2.465 1.598-4.565 2.099-6.227 2.099z"></path>
  <linearGradient id="P" x1="618.334" x2="683.366" y1="444.695" y2="444.695" gradientUnits="userSpaceOnUse">
    <stop offset="0" style="stop-color:#fde1a7"></stop>
    <stop offset="1" style="stop-color:#f9a144"></stop>
  </linearGradient>
  <path fill="url(#P)" d="M671.334 391.501c2.666 5.5 12.666 24.666 12 39.5s-4.668 30.167-5.168 41.667-.166 19-.166 19-10.998 6.833-27.666 6.333c-16.16-.484-24-4.667-24-4.667s-.479-17.641-2.5-29.666c-1.584-9.417-5.459-14.917-5.5-25.5-.055-13.543 20.791-31.042 27-40.5 5.104-7.775 26-6.167 26-6.167z"></path>
  <path fill="#1AA9E8" d="M652.102 499.027c-.592 0-1.19-.009-1.798-.026-16.208-.486-24.112-4.609-24.44-4.785a1 1 0 0 1 .941-1.765c.076.041 7.876 4.08 23.561 4.55 16.144.497 27.001-6.116 27.108-6.183a1 1 0 0 1 1.055 1.699c-.444.276-10.669 6.51-26.427 6.51z"></path>
  <linearGradient id="Q" x1="679.148" x2="738.962" y1="344.711" y2="404.524" gradientUnits="userSpaceOnUse">
    <stop offset="0" style="stop-color:#5a55f8"></stop>
    <stop offset="1" style="stop-color:#8c6ae2"></stop>
  </linearGradient>
  <path fill="url(#Q)" d="M687.25 336.626c2.5.125 10.154-1.858 15.875-3.125 11.293-2.5 22.391-2.351 25.25 5.5 2.459 6.75-1.631 12.355-.957 17.083.916 6.417 20.084 11.833 20.457 24.667.359 12.304-9.75 16.75-12.5 22.125s-8.225 21.687-27.25 20.375c-10.873-.75-13.873-7.167-13.875-11.625 0-5.724 5.5-10.125 2.875-14.25s-11.039-1.393-12.875-6.25c-1.998-5.292 2.5-9.625 5.875-12.25s8.375-5.375 7.25-9.25-8-4.851-7.75-8.75c.293-4.542 8.633-7.913 7.25-12.5-1.041-3.458-7-2.75-12.125-3.75s2.5-8 2.5-8z"></path>
  <linearGradient id="R" x1="645.334" x2="671.334" y1="382.045" y2="382.045" gradientUnits="userSpaceOnUse">
    <stop offset="0" style="stop-color:#f4bea3"></stop>
    <stop offset="1" style="stop-color:#e8878e"></stop>
  </linearGradient>
  <path fill="url(#R)" d="M668.834 368.834c-.646 5.792 2.5 22.667 2.5 22.667s-7.834 8.125-19.334 8.667c-5.643.266-6.666-2.5-6.666-2.5l2.334-23.167s3.514-6.593 10.666-9.333c7.15-2.741 9.834-.167 9.834-.167l.666 3.833z"></path>
  <linearGradient id="S" x1="627.9" x2="674.144" y1="350.534" y2="350.534" gradientUnits="userSpaceOnUse">
    <stop offset="0" style="stop-color:#f4bea3"></stop>
    <stop offset="1" style="stop-color:#e8878e"></stop>
  </linearGradient>
  <path fill="url(#S)" d="M665.668 326.834c-10.168-4.333-17.742-4.145-17.742-4.145C640 327 618.928 366.413 632.168 376c8.172 5.918 22.191-.119 31.508-8.164a6.03 6.03 0 0 0 1.809.277c3.246 0 5.875-2.546 5.875-5.688 0-.897-.221-1.742-.602-2.497.859-1.353 1.52-2.678 1.91-3.929 2.295-7.37 3.166-24.831-7-29.165z"></path>
  <path fill="#0090B2" d="M649.875 350.689a1.501 1.501 0 0 1-1.431-1.952c.462-1.461 2.142-4.181 3.209-5.198a1.5 1.5 0 0 1 2.068 2.174c-.691.657-2.114 2.97-2.416 3.927a1.499 1.499 0 0 1-1.43 1.049zM635.689 342.772a1.25 1.25 0 0 1-1.192-1.627c.445-1.41 1.798-3.594 2.837-4.583a1.25 1.25 0 1 1 1.723 1.812c-.724.688-1.862 2.533-2.175 3.524a1.252 1.252 0 0 1-1.193.874z"></path>
  <path fill="#9F36AD" d="M649.958 356.6a6.069 6.069 0 0 1-2.897-.711c-1.845-.986-3.055-2.861-3.407-5.28-.341-2.335.164-4.914 1.42-7.263 1.957-3.661 5.347-6.026 8.637-6.026 1.04 0 2.016.239 2.897.711 3.728 1.993 4.62 7.62 1.989 12.544-1.957 3.659-5.348 6.025-8.639 6.025zm3.752-17.781c-2.701 0-5.641 2.104-7.314 5.233-1.105 2.068-1.553 4.319-1.258 6.339.282 1.936 1.216 3.417 2.63 4.173a4.592 4.592 0 0 0 2.19.534c2.703 0 5.643-2.103 7.316-5.232 2.24-4.195 1.624-8.911-1.374-10.514a4.603 4.603 0 0 0-2.19-.533zM633.188 347.163a4.321 4.321 0 0 1-2.057-.5c-2.996-1.603-3.444-6.414-1.019-10.952 1.835-3.433 4.896-5.738 7.616-5.738.743 0 1.435.168 2.057.501 1.487.794 2.391 2.412 2.544 4.555.145 2.016-.397 4.288-1.525 6.396-1.833 3.432-4.895 5.738-7.616 5.738zm4.541-15.691c-2.148 0-4.736 2.034-6.294 4.945-1.961 3.67-1.776 7.756.403 8.922a2.84 2.84 0 0 0 1.35.323c2.15 0 4.738-2.033 6.294-4.945.996-1.862 1.476-3.845 1.352-5.583-.115-1.611-.738-2.797-1.755-3.339a2.846 2.846 0 0 0-1.35-.323z"></path>
  <linearGradient id="T" x1="627.064" x2="643.028" y1="346.773" y2="346.773" gradientUnits="userSpaceOnUse">
    <stop offset="0" style="stop-color:#ff57bd"></stop>
    <stop offset="1" style="stop-color:#ec9895"></stop>
  </linearGradient>
  <path fill="url(#T)" d="M642.252 339.667c-3.939 3.271-14.871 8.668-15.168 10.583-.396 2.563 5.461 3.991 6.795 3.991s2.309-3.616 5.873-8.575c2.008-2.793 4.594-7.738 2.5-5.999z"></path>
  <path fill="#9F36AD" d="M646.232 343.598a.749.749 0 0 1-.696-.471c-1.029-2.572-2.347-3.34-4.558-2.653a.75.75 0 0 1-.445-1.432c2.984-.928 5.074.227 6.396 3.528a.75.75 0 0 1-.697 1.028z"></path>
  <path fill="#954374" d="M628.904 359.894c.141.588.504 1.194.922 1.694.426.503.943.914 1.516 1.169 1.145.534 2.477.331 3.662-.252a.75.75 0 1 1 .666 1.345c-.016.007-.033.016-.049.022-.74.303-1.541.535-2.383.557a4.88 4.88 0 0 1-2.449-.538 5.545 5.545 0 0 1-1.857-1.592c-.477-.651-.867-1.352-1.029-2.203a.513.513 0 0 1 1-.216l.001.014z"></path>
  <path fill="#1AA9E8" d="M651.264 401.185c-5.627 0-6.817-3.036-6.867-3.17a1 1 0 1 1 1.875-.694c.028.062.956 2.07 5.682 1.848 10.976-.517 18.585-8.283 18.661-8.362a.999.999 0 1 1 1.439 1.389c-.331.343-8.245 8.417-20.007 8.971-.27.012-.531.018-.783.018z"></path>
  <linearGradient id="U" x1="637.424" x2="688.984" y1="338.794" y2="338.794" gradientUnits="userSpaceOnUse">
    <stop offset="0" style="stop-color:#5a55f8"></stop>
    <stop offset="1" style="stop-color:#8c6ae2"></stop>
  </linearGradient>
  <path fill="url(#U)" d="M663.887 356.956c-1.061.26-2.58-.206-2.469-2.372.207-4.083 7.215-10.344 7.043-16.125-.211-7.021-13.398-8.584-22.461-12.125-9.758-3.813-9.625-15.085-7.188-18.771 2.688-4.063 7.438-2.729 9.438-.729s2.916 4.221 4.668 4.167c2.02-.063 1.27-4 4.332-4 3.102 0 5.787 5.721 7.918 8.083 3.645 4.042 22.775 10.349 23.748 24.083 1.336 18.833-17.414 33.5-19.498 33.5-3.549.001-3.361-4.106-1.846-4.928 1.518-.822 4.375-2.557 3.652-6.523-.724-3.965-4.974-4.84-7.337-4.26z"></path>
  <path fill="#9F36AD" d="M667.604 357.126c1.672.626 2.975 1.968 3.502 3.642a.736.736 0 0 0 .119-.63c-1.201-4.299-7.465-8.118-10.828-10.169-.711-.433-1.324-.807-1.686-1.063a.75.75 0 0 0-.865 1.225c.402.285 1.006.652 1.77 1.118 2.191 1.337 5.681 3.465 7.988 5.877z"></path>
  <linearGradient id="V" x1="537.95" x2="574.655" y1="426.985" y2="426.985" gradientUnits="userSpaceOnUse">
    <stop offset="0" style="stop-color:#f4bea3"></stop>
    <stop offset="1" style="stop-color:#e8878e"></stop>
  </linearGradient>
  <path fill="url(#V)" d="M549.621 404.662c2.023-.395 4.316 6.214 5.316 9.964s1.725 10.098 5.396 14.292c3.354 3.833 14.084 7.333 14.084 7.333s1.166 6.25-1.668 9.75c-2.832 3.5-7.014 3.323-7.014 3.323s-12.318-12.24-17.486-15.823c-5.166-3.583-8.332-8.417-9.125-11.875-.848-3.7-1.457-5.542-1.041-9.625.225-2.216 1.096-5.159 1.096-5.159s7.672 12.174 9.654 15.326c2.084-.417 1.084-6.167.834-8.5s-2.104-8.605-.046-9.006z"></path>
  <linearGradient id="W" x1="564.652" x2="676.459" y1="441.351" y2="441.351" gradientUnits="userSpaceOnUse">
    <stop offset="0" style="stop-color:#fde1a7"></stop>
    <stop offset="1" style="stop-color:#f9a144"></stop>
  </linearGradient>
  <path fill="url(#W)" d="M658.002 407.767c8.748-1.516 13.885 2.424 16.623 8.359 3 6.5 2.375 14.542-2.291 19.208s-34.715 40.375-50.543 39.922c-17.666-.506-56.729-22.804-57.123-25.089-.396-2.285 6.895-14.93 7.918-14.562 1.021.368 41.412 15.627 47.414 14.011 6-1.615 31.922-40.795 38.002-41.849z"></path>
  <path fill="#1AA9E8" d="M564.657 451.147a.977.977 0 0 1-.975-.809c-.46-2.653 6.012-13.763 7.874-15.327.465-.391.923-.507 1.368-.347a1 1 0 0 1-.138 1.921c-1.544 1.295-7.354 11.672-7.133 13.414.069.539-.303 1.056-.84 1.136a.919.919 0 0 1-.156.012z"></path>
  <linearGradient id="X" x1="284.678" x2="340.293" y1="581.21" y2="636.825" gradientUnits="userSpaceOnUse">
    <stop offset="0" style="stop-color:#00e2ec"></stop>
    <stop offset="1" style="stop-color:#0090b2"></stop>
  </linearGradient>
  <path fill="url(#X)" d="M278.598 629.583a2.804 2.804 0 0 0 2.805 2.804h62.165a2.804 2.804 0 0 0 2.805-2.804V588.45a2.804 2.804 0 0 0-2.805-2.804h-62.165a2.804 2.804 0 0 0-2.805 2.804v41.133z"></path>
  <linearGradient id="Y" x1="282.739" x2="342.232" y1="579.27" y2="638.764" gradientUnits="userSpaceOnUse">
    <stop offset="0" style="stop-color:#706aed"></stop>
    <stop offset="1" style="stop-color:#271068"></stop>
  </linearGradient>
  <path fill="url(#Y)" d="M345.735 584.017h-66.5a3 3 0 0 0-3 3v44a3 3 0 0 0 3 3h66.5a3 3 0 0 0 3-3v-44a3 3 0 0 0-3-3zm-2 45h-62.5v-40h62.5v40z"></path>
  <path fill="#FDE1A7" d="M279.188 612.085h52.918v5h-52.918z"></path>
  <path fill="#00E2EC" d="m325.237 600.271 6.869 8.027-13.697.037z"></path>
  <circle cx="307" cy="604.303" r="4.032" fill="#F95FC3"></circle>
  <linearGradient id="Z" x1="204.095" x2="236.483" y1="773.097" y2="805.484" gradientUnits="userSpaceOnUse">
    <stop offset="0" style="stop-color:#706aed"></stop>
    <stop offset="1" style="stop-color:#271068"></stop>
  </linearGradient>
  <path fill="url(#Z)" d="M220.075 779.637c1.843 4.614 9.727 6.548 16.342 8.114 7.129 1.688 12.207 2.662 11.917 5.5-.333 3.25-15.833 4.333-27.083 4s-19.4-1.659-21.066-2.909c-1.76-1.32-1.683-13.258-1.267-15.924s21.157 1.219 21.157 1.219z"></path>
  <linearGradient id="aa" x1="147.556" x2="290.556" y1="569.446" y2="712.447" gradientUnits="userSpaceOnUse">
    <stop offset="0" style="stop-color:#994574"></stop>
    <stop offset="1" style="stop-color:#43256f"></stop>
  </linearGradient>
  <path fill="url(#aa)" d="M208.334 508.668c-1.5 5.5-5.333 18.167-6.667 42.167s.333 97.667.333 115.667-4.333 49.999-4.667 71.666-.763 42.041.5 42.833c2.792 1.75 18.792 3 24.167 0 .938-.523 9.667-76.166 15.667-107.833C241.625 652.276 257 538.833 258 522.167s-49.666-13.499-49.666-13.499z"></path>
  <path fill="#CD218F" d="M211.821 775.933c-7.418 0-13.15-1.482-15.244-2.539a1 1 0 1 1 .901-1.785c2.902 1.464 13.369 3.782 25.568 1.13a1 1 0 0 1 .424 1.955 55 55 0 0 1-11.649 1.239z"></path>
  <linearGradient id="ab" x1="285.585" x2="316.479" y1="780.261" y2="811.154" gradientUnits="userSpaceOnUse">
    <stop offset="0" style="stop-color:#706aed"></stop>
    <stop offset="1" style="stop-color:#271068"></stop>
  </linearGradient>
  <path fill="url(#ab)" d="M301.25 785.418c1.583 2.834 8.634 6.351 15.25 7.917 7.129 1.688 12.207 2.662 11.917 5.5-.333 3.25-15.833 4.333-27.083 4s-18.833-.75-20.5-2c-1.76-1.32-2.667-10.751-2.25-13.417s22.666-2 22.666-2z"></path>
  <linearGradient id="ac" x1="187.297" x2="359.026" y1="559.173" y2="730.902" gradientUnits="userSpaceOnUse">
    <stop offset="0" style="stop-color:#994574"></stop>
    <stop offset="1" style="stop-color:#43256f"></stop>
  </linearGradient>
  <path fill="url(#ac)" d="M287.75 520.501c.75 10 7.5 131.25 9 151.25s8.082 112.32 7.25 114.084c-1.375 2.916-22.625 6.166-25.875 3.291-2.079-1.839-8.792-48.624-14.125-79.291s-17-85-23-106.333-17-56.251-10.75-87.251c5.75-6.5 18.505-6.354 32.5-3.75 14.41 2.681 25 8 25 8z"></path>
  <path fill="#CD218F" d="M245.607 623.675a702.006 702.006 0 0 0-3.603-14.072c-1.242-4.676-2.651-9.303-4.008-13.961-2.729-9.307-5.295-18.688-7.25-28.228a1 1 0 1 1 1.963-.385c1.77 9.489 4.158 18.868 6.719 28.207 1.271 4.67 2.605 9.342 3.769 14.056a702.436 702.436 0 0 1 3.36 14.158.487.487 0 0 1-.95.225z"></path>
  <path fill="#CD218F" d="M231.716 568.158a.991.991 0 0 1-.389-.079c-2.925-1.234-9.555-6.016-11.184-8.73a1 1 0 1 1 1.715-1.029c1.31 2.183 7.407 6.718 10.248 7.918a1 1 0 0 1-.39 1.92zM284.128 783.279c-3.926 0-7.102-.427-8.461-.936a.999.999 0 1 1 .701-1.873c3.204 1.198 18.276 1.84 26.938-3.583a.999.999 0 1 1 1.061 1.695c-5.756 3.604-13.958 4.697-20.239 4.697z"></path>
  <linearGradient id="ad" x1="224.386" x2="295.582" y1="296.979" y2="296.979" gradientUnits="userSpaceOnUse">
    <stop offset="0" style="stop-color:#f4bea3"></stop>
    <stop offset="1" style="stop-color:#e8878e"></stop>
  </linearGradient>
  <path fill="url(#ad)" d="M250.958 344.559c6-12 30.209-63.891 32.709-67.058s4.462-3.789 5.167-8.583c.585-3.98.27-6.729 1-9.833 1-4.25 7.032-15.598 5.5-18.917-1-2.167-5 3.584-6.5 5.417s-5.955 8.993-7.019 8.33c-.283-2.788.083-12.163.083-12.163-1.897 2.25-4.522 8-6.022 14s-1.042 8.083-4.375 14.917-30.75 36.833-44.75 68.083a189.117 189.117 0 0 0-2.365 5.525c5.917 4.149 13.825 8.334 23.351 9.996.997-4.039 2.084-7.441 3.221-9.714z"></path>
  <linearGradient id="ae" x1="181.231" x2="301.026" y1="387.432" y2="507.227" gradientUnits="userSpaceOnUse">
    <stop offset="0" style="stop-color:#1aa9e8"></stop>
    <stop offset=".422" style="stop-color:#3d80ef"></stop>
    <stop offset=".791" style="stop-color:#5662f4"></stop>
    <stop offset="1" style="stop-color:#5f57f6"></stop>
  </linearGradient>
  <path fill="url(#ae)" d="M260.917 405.751c-17.765-4.986-16.015-2.286-17.954-3.153-2.127-2.128.505-31.052 4.773-48.326-9.526-1.662-17.433-5.846-23.351-9.996-12.56 30.607-19.664 69.599-20.135 100.225-.5 32.5.75 65 1 66.5s22.99 15.499 48.25 15.75c25.167.25 34.25-6.25 34.25-6.25s5.044-89.098 4.23-91.591-13.298-18.173-31.063-23.159z"></path>
  <path fill="#05C5DA" d="M257.042 520.693c-.773 0-1.559-.007-2.366-.021-29.848-.515-48.36-13.678-50.524-16.078a1 1 0 0 1 1.485-1.34c1.75 1.941 20.005 14.917 49.073 15.418 24.532.425 32.728-5.931 32.808-5.995a1 1 0 1 1 1.252 1.56c-.338.273-8.327 6.456-31.728 6.456zM276.06 425.424a.997.997 0 0 1-.886-.535c-3.126-5.953-13.81-14.264-18.608-16.131a1 1 0 0 1 .724-1.864c5.184 2.016 16.282 10.645 19.654 17.065a1 1 0 0 1-.884 1.465zM226.391 395.042a1 1 0 0 1-.984-.829c-2.044-11.745 4.502-30.583 7.648-39.635.68-1.958 1.218-3.504 1.43-4.303a.998.998 0 0 1 1.223-.709.998.998 0 0 1 .709 1.223c-.231.872-.752 2.371-1.474 4.446-3.091 8.894-9.522 27.401-7.567 38.636a1 1 0 0 1-.985 1.171z"></path>
  <path fill="#05C5DA" d="M214.251 399.251a1 1 0 0 1-.659-1.752c2.003-1.752 12.803-7.692 25.297-2.419a1 1 0 1 1-.777 1.843c-11.607-4.897-21.697.763-23.203 2.081-.19.165-.425.247-.658.247z"></path>
  <linearGradient id="af" x1="268.734" x2="281.44" y1="344.518" y2="344.518" gradientUnits="userSpaceOnUse">
    <stop offset="0" style="stop-color:#ec9895"></stop>
    <stop offset="1" style="stop-color:#ff57bd"></stop>
  </linearGradient>
  <path fill="url(#af)" d="M269.366 336.126c3.808 6.306 11.384 7.5 12.009 9.625s-3.5 6.375-4.75 7.125-7.25-11.5-7.75-12.875.491-3.875.491-3.875z"></path>
  <linearGradient id="ag" x1="226.608" x2="273.812" y1="345.652" y2="392.856" gradientUnits="userSpaceOnUse">
    <stop offset="0" style="stop-color:#f4bea3"></stop>
    <stop offset="1" style="stop-color:#e8878e"></stop>
  </linearGradient>
  <path fill="url(#ag)" d="M258.813 322.939S241.5 328.001 233 339.835c-4.693 6.534 1.133 18.043 7.292 27.045-2.063 1.762-3.125 3.788-3.125 3.788l-.792 2.208c-.458 5.042-5.945 22.401-7.945 27.568-.744 1.922 4.466 8.989 15.82 9.557 10 .5 16.667-4.25 16.667-4.25l.958-21.938s.336-1.373.698-3.242c4.836-.616 10.335-2.512 14.927-7.237 11.5-11.833-12.25-45.208-18.687-50.395z"></path>
  <linearGradient id="ah" x1="221.157" x2="271.605" y1="339.793" y2="339.793" gradientUnits="userSpaceOnUse">
    <stop offset="0" style="stop-color:#cb2090"></stop>
    <stop offset="1" style="stop-color:#43256f"></stop>
  </linearGradient>
  <path fill="url(#ah)" d="M255.334 353.334c1.267-.857.917-3.5-2.083-6.5s-6.167-5.667-5.583-8.833c.579-3.141 10.921-6.489 15.776-10.088 7.974-5.912 10.557-20.246 5.724-21.162-6.631-1.257-8.748 7.833-10.5 7.833-2.083 0-1.017-4.859-4.005-4.508-4.329.508-5.996 6.675-8.495 8.591-3.746 2.872-23.667 9-24.917 23.833-1.018 12.075 6.545 18.941 9.875 23.25 3.542 4.583 4.635 6.94 5.25 7.125 1.104.332 5.965-.392 10.125-2.125 4.5-1.875 7.25-4.25 6.375-5.375s-7.417-2.381-7.875-7.875c-.333-4 2.375-5.75 4.5-5.375s4.416 2.168 5.833 1.209z"></path>
  <linearGradient id="ai" x1="257.518" x2="279.215" y1="357.433" y2="379.13" gradientUnits="userSpaceOnUse">
    <stop offset="0" style="stop-color:#cb2090"></stop>
    <stop offset="1" style="stop-color:#43256f"></stop>
  </linearGradient>
  <path fill="url(#ai)" d="M258.375 357.376c.783.024 1.375 5.333 4.438 6.063 2.04.485 8.604-4.063 11.563-5.375 1.797-.797 5.001-1.343 5.207-.521s.668 3.834 1.793 6.521c.95 2.269 3.125 4.354 2.063 9-1.56 6.823-13.438 11.938-21.563 10.75-.188-1.938-.459-4.943-1.813-10.375-1.563-6.271-3.996-11.979-3.938-13.125.084-1.646.917-2.98 2.25-2.938z"></path>
  <path fill="#0090B2" d="M267.083 346.168a1.5 1.5 0 0 1-1.444-1.099c-.344-1.24-1.917-3.97-2.232-4.389a1.514 1.514 0 0 1 .269-2.1 1.486 1.486 0 0 1 2.08.234c.403.503 2.289 3.704 2.774 5.453a1.5 1.5 0 0 1-1.447 1.901z"></path>
  <path fill="#F1D2F8" d="M274.906 362.5c.177.297.721.661 1.206.855.506.208 1.052.309 1.576.25 1.063-.093 1.957-.956 2.509-2.029a.399.399 0 0 1 .723.337c-.264.621-.609 1.236-1.116 1.755a3.73 3.73 0 0 1-1.925 1.07c-.743.155-1.507.082-2.206-.133-.703-.245-1.353-.498-1.972-1.213l-.011-.013a.754.754 0 1 1 1.216-.879z"></path>
  <linearGradient id="aj" x1="228.361" x2="261.266" y1="401.81" y2="401.81" gradientUnits="userSpaceOnUse">
    <stop offset="0" style="stop-color:#1aa9e8"></stop>
    <stop offset=".422" style="stop-color:#3d80ef"></stop>
    <stop offset=".791" style="stop-color:#5662f4"></stop>
    <stop offset="1" style="stop-color:#5f57f6"></stop>
  </linearGradient>
  <path fill="url(#aj)" d="M244.25 410.001c10 .5 16.667-4.25 16.667-4.25l.349-7.993c-2.518 1.354-7.953 3.683-15.114 3.325-8.692-.435-13.77-4.673-15.346-7.501-.944 2.902-1.803 5.383-2.375 6.862-.744 1.922 4.465 8.989 15.819 9.557z"></path>
  <path fill="#05C5DA" d="M245.741 411.038c-.505 0-1.018-.012-1.541-.039-8.391-.419-13.806-4.324-15.894-7.54-.855-1.317-1.142-2.516-.809-3.377a1 1 0 0 1 1.867.716c-.029.124.034.795.871 1.935 2.05 2.792 6.822 5.906 14.064 6.268 9.543.469 15.972-4.02 16.037-4.066a1 1 0 1 1 1.161 1.629c-.269.193-6.392 4.474-15.756 4.474z"></path>
  <linearGradient id="ak" x1="268.51" x2="319.288" y1="532.832" y2="532.832" gradientUnits="userSpaceOnUse">
    <stop offset="0" style="stop-color:#f4bea3"></stop>
    <stop offset="1" style="stop-color:#e8878e"></stop>
  </linearGradient>
  <path fill="url(#ak)" d="M310.938 569.313c-2.834-8.671-5.82-64.987-10.883-104.153-14.052.372-25.483 3.893-31.545 6.791 1.427 6.59 3.482 15.213 6.741 26.55 8.917 31.022 20.875 66.375 21.083 74 .123 4.498-3.706 9.778-4.194 16.421-.327 4.454 1.485 11.704 3.194 11.579 2.167-.158 1.986-6.757 2.854-9.875 1.375-4.938 4.313-6.625 4.313-6.625s6.25.016 16.788.016c-1.48-5.313-7.116-10.923-8.351-14.704z"></path>
  <linearGradient id="al" x1="260.129" x2="300.055" y1="447.772" y2="447.772" gradientUnits="userSpaceOnUse">
    <stop offset="0" style="stop-color:#1aa9e8"></stop>
    <stop offset=".422" style="stop-color:#3d80ef"></stop>
    <stop offset=".791" style="stop-color:#5662f4"></stop>
    <stop offset="1" style="stop-color:#5f57f6"></stop>
  </linearGradient>
  <path fill="url(#al)" d="M291.167 427.834c-10-10.667-29.167.5-31 14.5-.392 2.993 2.333 6.501 4.333 11.667 1.186 3.063 1.93 8.347 4.009 17.95 6.062-2.898 17.493-6.419 31.545-6.791-2.418-18.71-5.31-33.511-8.887-37.326z"></path>
  <path fill="#05C5DA" d="M268.51 472.951a1 1 0 0 1-.432-1.902c3.138-1.5 14.718-6.432 31.95-6.889.554.003 1.012.422 1.026.974a1 1 0 0 1-.973 1.026c-13.378.354-24.858 3.689-31.14 6.693a.99.99 0 0 1-.431.098zM260.168 443.334a1.001 1.001 0 0 1-.993-1.13c1.062-8.107 7.947-15.959 16.371-18.671 6.326-2.037 12.286-.719 16.351 3.618a1.001 1.001 0 0 1-1.459 1.369c-4.812-5.133-11.012-4.135-14.279-3.082-7.726 2.487-14.034 9.648-15 17.027a1 1 0 0 1-.991.869z"></path>
  <path fill="#F95FC3" d="m592.861 327.984-10.525-.917 9.75-9.62z"></path>
  <path fill="#1AA9E8" d="M555.668 360.168a1 1 0 0 1-.95-.689c-5.132-15.68 5-25.397 21.785-41.498 3.466-3.324 7.395-7.092 11.455-11.185 23.899-24.09 19.233-48.553 17.233-55.477a1 1 0 0 1 1.922-.554c2.076 7.188 6.932 32.576-17.735 57.439-4.078 4.11-8.016 7.888-11.49 11.22-16.22 15.557-26.01 24.947-21.27 39.432a.998.998 0 0 1-.95 1.312z"></path>
  <path fill="#00E2EC" d="m603.129 313.377-3.549-3.521c9.082-9.155 14.912-19.351 17.33-30.304l4.883 1.078c-2.625 11.892-8.904 22.91-18.664 32.747z"></path>
  <circle cx="606.153" cy="251.043" r="3.958" fill="#FDE1A7"></circle>
  <path fill="#1AA9E8" d="M546.665 364.168a.99.99 0 0 1-.462-.115c-.293-.154-7.163-3.904-5.525-15.36.927-6.492 5.158-11.953 9.638-17.734 5.825-7.518 11.849-15.292 11.021-26.048-.32-4.167-2.459-7.829-6.357-10.886-20.878-16.375-85.336-11.966-101.713-9.259a.998.998 0 0 1-1.149-.824 1 1 0 0 1 .823-1.15c16.569-2.738 81.868-7.129 103.273 9.659 4.357 3.417 6.752 7.558 7.117 12.307.887 11.525-5.659 19.973-11.435 27.426-4.313 5.566-8.387 10.824-9.238 16.792-1.429 9.995 4.238 13.179 4.479 13.31.484.262.669.866.41 1.352a.999.999 0 0 1-.882.53z"></path>
  <path fill="#C7A0F6" d="M529.24 296.448c-9.563-1.572-20.971-2.379-33.91-2.397l.008-5c13.207.019 24.885.847 34.713 2.463l-.811 4.934z"></path>
  <circle cx="453.103" cy="283.779" r="3.958" fill="#FDE1A7"></circle>
  <path fill="#F95FC3" d="m166.698 375.969-3.62 9.926-6.757-11.912z"></path>
  <path fill="#1AA9E8" d="M270.296 458.94c-.791 0-1.579-.006-2.37-.018-39.961-.604-75.531-16.148-100.157-43.77-28.965-32.489-42.714-73.667-36.78-110.151 4.456-27.393 19.57-49.73 42.559-62.898a1 1 0 1 1 .994 1.736c-22.456 12.862-37.222 34.698-41.579 61.484-5.839 35.895 7.73 76.455 36.299 108.499 51.457 57.717 145.058 57.829 213.092.25 11.769-9.96 21.803-20.232 31.507-30.166 23.083-23.629 43.019-44.037 73.263-44.796 28.253-.708 42.284 13.88 49.085 26.243a.999.999 0 1 1-1.752.964c-6.533-11.877-20.026-25.886-47.282-25.208-29.433.739-49.104 20.877-71.883 44.194-9.737 9.967-19.805 20.273-31.646 30.294-33.087 28.004-73.252 43.342-113.35 43.343z"></path>
  <path fill="#C7A0F6" d="M152.561 364.925c-4.686-13.327-7.18-26.798-7.412-40.039l4.999-.088c.223 12.705 2.622 25.647 7.13 38.468l-4.717 1.659z"></path>
  <path fill="#00E2EC" d="m306.065 446.951-1.092-4.879c11.689-2.617 23.255-6.552 34.377-11.697l2.099 4.538c-11.443 5.295-23.348 9.345-35.384 12.038z"></path>
  <circle cx="174.046" cy="242.972" r="3.958" fill="#FDE1A7"></circle>
  <path fill="#00E2EC" d="m507.633 524.75-10.383 1.96 6.789-11.897z"></path>
  <path fill="#1AA9E8" d="M431.22 547.87c-1.38 0-2.711-.037-3.982-.109a1 1 0 0 1-.942-1.055 1.01 1.01 0 0 1 1.055-.941c19.284 1.094 52.447-5.934 64.763-29.724 5.512-10.647 7.058-25.914 8.693-42.077 2.712-26.787 5.516-54.484 26.338-67.314a1 1 0 1 1 1.049 1.703c-19.98 12.311-22.734 39.51-25.396 65.813-1.656 16.358-3.221 31.81-8.908 42.796-11.935 23.051-42.557 30.908-62.67 30.908z"></path>
  <path fill="#F95FC3" d="m511.037 505.397-4.865-1.154c2.041-8.596 3.037-18.447 4.094-28.878.297-2.933.596-5.888.922-8.841l4.971.549a973.98 973.98 0 0 0-.918 8.796c-1.073 10.6-2.087 20.61-4.204 29.528z"></path>
  <circle cx="427.293" cy="546.763" r="3.958" fill="#C7A0F6"></circle>
</svg>
