<svg xmlns="http://www.w3.org/2000/svg" width="200" height="200" class="icon" p-id="4596" t="1708482291223" version="1.1" viewBox="0 0 1485 1024"><path fill="#d9d9d9" d="M148.994 689.28h19.968a9.984 9.984 0 0 1 0 19.84h-19.968v20.48a9.984 9.984 0 0 1-9.984 9.728 10.112 10.112 0 0 1-10.368-9.728v-20.48h-19.584a9.984 9.984 0 0 1-9.856-9.984 9.856 9.856 0 0 1 9.856-9.856h20.224v-20.096a9.984 9.984 0 0 1 19.84 0v20.096z m1306.624-79.616v-19.968a9.6 9.6 0 0 0-2.944-7.04 10.24 10.24 0 0 0-7.04-2.816 9.984 9.984 0 0 0-9.856 9.856v19.968h-20.096a8.96 8.96 0 0 0-6.912 3.072 9.344 9.344 0 0 0-2.816 6.912 9.984 9.984 0 0 0 9.728 9.984h20.096V649.6a9.856 9.856 0 0 0 9.856 9.856 9.984 9.984 0 0 0 9.984-9.856v-19.968h20.096a9.984 9.984 0 0 0 0-19.968zM736.386 937.856H238.082a19.328 19.328 0 0 1-13.824-5.888 19.84 19.84 0 0 1 13.824-33.92h89.6a80.128 80.128 0 0 1-10.624-39.68V281.6a80 80 0 0 1 23.168-56.192 79.104 79.104 0 0 1 56.064-23.296h59.264v-20.096a79.488 79.488 0 0 1 23.296-56.192 78.464 78.464 0 0 1 56.192-23.424h475.008a79.36 79.36 0 0 1 79.232 79.36v577.28a78.464 78.464 0 0 1-10.624 39.552h109.44a19.968 19.968 0 0 1 0 39.808H950.786v19.968a78.464 78.464 0 0 1-10.496 39.68h10.496a19.712 19.712 0 0 1 19.84 19.84 19.968 19.968 0 0 1-19.84 19.968H846.722a39.424 39.424 0 0 1-6.016 48.384 40.32 40.32 0 0 1-28.032 11.776 39.296 39.296 0 0 1-28.032-11.776z m72.448-39.808h62.976a39.68 39.68 0 0 0 39.424-40.448V280.448a38.4 38.4 0 0 0-38.4-38.4H395.01a38.4 38.4 0 0 0-38.4 38.4V857.6a39.936 39.936 0 0 0 39.424 39.936h300.544l-9.984-10.24a40.064 40.064 0 0 1-10.368-38.4l-18.688-18.688A138.112 138.112 0 0 1 469.89 809.6a139.648 139.648 0 0 1 6.656-189.312 137.984 137.984 0 0 1 188.928-7.04 139.52 139.52 0 0 1 20.096 188.8l19.072 19.072a39.424 39.424 0 0 1 38.4 10.24z m141.952-99.456h59.776a39.808 39.808 0 0 0 39.68-39.808V182.016a39.68 39.68 0 0 0-39.424-39.808H534.914a39.808 39.808 0 0 0-39.424 39.808v19.84h375.552a79.104 79.104 0 0 1 79.616 79.744v516.992zM253.058 67.584h29.184a14.976 14.976 0 1 1 0 29.824h-29.44v29.696a14.976 14.976 0 1 1-29.824 0V97.408h-29.312a14.848 14.848 0 0 1-10.624-4.224 14.976 14.976 0 0 1 10.624-25.6h29.568V38.4a14.976 14.976 0 1 1 29.824 0zM20.354 917.888a19.968 19.968 0 0 1 19.712-19.84h119.04a19.712 19.712 0 0 1 19.712 19.84 19.968 19.968 0 0 1-19.712 19.968H40.066a19.84 19.84 0 0 1-13.824-5.888 19.456 19.456 0 0 1-5.76-14.08z m624.256-128a99.84 99.84 0 0 0 0-140.8 98.816 98.816 0 0 0-140.032 0 99.84 99.84 0 0 0 0 140.8 98.816 98.816 0 0 0 140.032 0z m-208.768-468.48a19.84 19.84 0 0 1 19.712-19.968h217.6a19.968 19.968 0 0 1 0 39.808h-217.6a20.736 20.736 0 0 1-14.08-5.76 20.224 20.224 0 0 1-5.632-14.08z m0 99.328a19.84 19.84 0 0 1 19.712-19.84h317.312a19.968 19.968 0 0 1 0 39.808H455.682a19.712 19.712 0 0 1-19.84-19.968z m0 99.456a19.84 19.84 0 0 1 19.712-19.84h139.008a19.84 19.84 0 0 1 0 39.68H455.81a19.84 19.84 0 0 1-19.968-19.84zM60.034 400.896a59.648 59.648 0 1 1 59.264-59.648 59.392 59.392 0 0 1-59.264 59.648z m0-29.824a29.824 29.824 0 0 0 0-59.648 29.824 29.824 0 0 0 0 59.648z m1227.392-89.6a59.648 59.648 0 1 1 59.264-59.648 59.264 59.264 0 0 1-59.264 59.776z m0-29.824a29.568 29.568 0 0 0 25.6-14.976 30.208 30.208 0 0 0 0-29.824 29.696 29.696 0 1 0-25.6 44.8z" p-id="4597"/></svg>