<svg xmlns="http://www.w3.org/2000/svg" width="200" height="200" class="icon" p-id="17514" t="1708670419822" version="1.1" viewBox="0 0 1024 1024"><path fill="#e6e6e6" d="M27.826087 926.274783l288.946087-449.224348c14.914783-23.373913 45.857391-30.052174 69.231304-15.137392 4.897391 3.116522 9.126957 7.123478 12.688696 11.798261l115.97913 152.041739c16.695652 22.038261 48.306087 26.267826 70.121739 9.349566 1.78087-1.335652 3.561739-2.893913 5.342609-4.674783l50.086957-50.754783c19.366957-19.589565 51.2-19.812174 70.789565-0.445217 1.335652 1.113043 2.448696 2.448696 3.561739 3.784348l281.822609 342.817391H27.826087zM654.024348 287.610435c0 39.17913 31.833043 71.012174 71.012174 71.012174 39.17913 0 71.012174-31.833043 71.012174-71.012174s-31.833043-71.012174-71.012174-71.012174c-39.401739 0-71.012174 31.833043-71.012174 71.012174z" p-id="17515"/></svg>